PathFileType	4	(X/Y/Z)	D:\TRACE\spot_10-12-23\spot_body_motion_2_2-platform.trc
DataRate	CameraRate	NumFrames	NumMarkers	Units	OrigDataRate	OrigDataStartFrame	OrigNumFrames
100.00	100.00	      60	5	mm	100.00	5251	      7000
Frame#	Time	Left_Front			Right_Front			Left_Aft			Right_Aft			Post			
		X1	Y1	Z1	X2	Y2	Z2	X3	Y3	Z3	X4	Y4	Z4	X5	Y5	Z5	

5251	52.500	-734.82214	67.70235	-623.82678	837.47168	72.05470	-617.26990	-651.70074	-37.58340	508.95871	765.99921	-40.52431	595.01788	47.36289	831.54449	-872.33447	
5252	52.510	-735.50488	68.39742	-623.75195	836.98572	72.44839	-617.12073	-651.89600	-37.97275	509.34705	765.27911	-40.91282	595.01636	46.69933	832.23499	-871.80487	
5253	52.520	-735.85620	68.58621	-623.72314	836.57172	72.82858	-616.99475	-652.48425	-38.26804	509.41000	764.73810	-41.17843	595.08246	46.60815	832.73816	-871.47614	
5254	52.530	-736.33057	68.96605	-623.60565	836.19373	73.25103	-616.81903	-653.05658	-38.46793	509.41711	764.26508	-41.39633	595.13153	46.30342	833.26843	-871.13403	
5255	52.540	-736.93384	69.30498	-623.50787	835.92169	73.55374	-616.72107	-653.66992	-38.29502	509.07886	763.82275	-41.59988	595.11353	45.55352	833.69788	-870.71710	
5256	52.550	-737.47968	69.53168	-623.24841	835.27539	73.76077	-616.68024	-654.04211	-38.43900	509.16498	763.41931	-41.75069	595.17676	44.91405	833.96210	-870.28198	
5257	52.560	-737.88171	69.47188	-623.13098	834.57300	73.93903	-616.56970	-654.73187	-38.73398	509.18927	762.95667	-42.09684	595.20715	44.37933	834.08667	-869.82263	
5258	52.570	-738.51318	69.61041	-623.18231	833.95764	74.05954	-616.46698	-655.38348	-38.98817	509.25870	762.21875	-42.33648	595.15118	43.83031	834.29608	-869.42920	
5259	52.580	-739.05011	69.81287	-623.19769	833.37811	74.32652	-616.44128	-655.84027	-39.09323	509.26120	761.43152	-42.39580	595.17920	43.32869	834.46655	-869.11615	
5260	52.590	-740.04156	70.13304	-623.05652	832.98297	74.49399	-616.37860	-656.42224	-39.15134	509.40359	760.87286	-42.44990	595.22681	42.61444	834.57361	-868.91718	
5261	52.600	-740.60083	70.32832	-623.04828	832.18262	74.46472	-616.45374	-657.14429	-39.22101	509.35837	760.35089	-42.48561	595.24359	42.02522	834.75922	-868.67188	
5262	52.610	-741.04987	70.25819	-623.08167	831.33264	74.42905	-616.36639	-657.78601	-39.31825	509.43051	759.93427	-42.53662	595.30469	41.41727	834.85046	-868.60376	
5263	52.620	-741.60632	70.23655	-623.10254	830.82733	74.36824	-616.40100	-658.28235	-39.42929	509.41464	759.03973	-42.47226	595.25946	40.96152	834.82941	-868.66882	
5264	52.630	-742.48364	70.26823	-623.16132	830.39099	74.42000	-616.41730	-659.01563	-39.31453	509.28720	758.33881	-42.40962	595.36261	40.37395	834.86304	-868.71820	
5265	52.640	-743.14301	70.02991	-623.06256	829.82306	74.49761	-616.41840	-659.67065	-39.20794	509.24771	757.82617	-42.40249	595.38086	39.37292	834.89667	-868.97070	
5266	52.650	-744.13098	70.05598	-623.13281	828.75452	74.41277	-616.57910	-660.58636	-39.08675	509.33203	756.95935	-42.22615	595.39172	38.47320	834.66248	-869.23480	
5267	52.660	-744.40759	70.01204	-623.18781	827.71722	74.06507	-616.59967	-661.32605	-39.05743	509.37949	756.09265	-42.17328	595.24329	37.86867	834.34790	-869.31555	
5268	52.670	-745.31116	69.79424	-623.34601	827.21588	74.02567	-616.45123	-661.99207	-39.00080	509.35449	755.36346	-42.06691	595.20459	37.38581	834.04761	-869.45520	
5269	52.680	-745.96576	69.47123	-623.33325	826.65887	73.78180	-616.48975	-662.75818	-38.89823	509.44263	754.99371	-41.74107	595.09619	36.48816	833.90277	-870.00629	
5270	52.690	-747.05389	69.29822	-623.38324	825.80237	73.43487	-616.66205	-663.46387	-38.85278	509.37872	753.76978	-41.65906	595.30579	35.71296	833.65399	-870.32721	
5271	52.700	-747.78046	69.32320	-623.46057	824.92023	73.35509	-616.71033	-664.36011	-38.61583	509.20831	753.19470	-41.54111	595.24884	34.78758	833.34290	-870.61847	
5272	52.710	-748.47736	69.06449	-623.65704	824.13037	73.06883	-616.89880	-665.18475	-38.19253	509.10367	752.26038	-41.13424	595.18994	34.31521	832.74811	-870.98981	
5273	52.720	-749.32153	68.37487	-623.67773	823.17145	72.57000	-617.16296	-665.90900	-37.98336	509.22958	751.42645	-40.78712	595.20905	33.31253	832.27521	-871.54462	
5274	52.730	-750.17987	68.01167	-623.87225	822.48328	72.14149	-617.08282	-666.76996	-37.85155	509.22833	750.58612	-40.54964	595.19855	32.36002	831.72107	-871.86469	
5275	52.740	-750.93951	67.54534	-623.91949	821.60181	71.84012	-617.26141	-667.59174	-37.61354	509.11157	749.64258	-40.29719	595.02289	31.38944	831.10565	-872.59497	
5276	52.750	-751.77435	66.90717	-624.04193	820.75653	71.41216	-617.43689	-668.59338	-36.98146	508.94705	748.57983	-40.00073	594.95966	30.62517	830.54657	-873.28461	
5277	52.760	-752.81543	66.60677	-624.41821	819.75049	70.71220	-617.60004	-669.58856	-36.56569	508.83316	747.94678	-39.46287	594.98712	30.00285	829.86670	-874.01611	
5278	52.770	-753.86993	66.15712	-624.50464	818.73938	70.33402	-617.89099	-670.25189	-36.34115	509.02258	746.86725	-38.84935	594.79041	28.79688	829.03223	-875.02747	
5279	52.780	-754.58459	65.52535	-624.64929	817.89795	69.69447	-618.09204	-671.13208	-35.94946	508.83234	746.02405	-38.50720	594.72308	28.02493	828.25366	-875.86102	
5280	52.790	-755.53564	64.91536	-624.88708	817.17517	69.00439	-618.05615	-672.27777	-35.29863	508.57391	745.22498	-37.97827	594.58295	26.82951	827.35693	-877.04956	
5281	52.800	-756.47461	64.19772	-625.07776	816.19147	68.39306	-618.34747	-673.17651	-35.23558	508.75211	744.16638	-37.53906	594.48627	26.19901	826.63208	-877.91479	
5282	52.810	-757.31671	63.49477	-625.32922	815.18872	67.83398	-618.48883	-673.96863	-34.93116	508.63498	743.10864	-36.95637	594.27936	25.09767	825.81757	-879.02435	
5283	52.820	-758.36786	62.91562	-625.44867	814.30603	67.28192	-618.86597	-675.12097	-34.11559	508.24994	741.98077	-37.06585	594.06787	24.18176	824.93231	-879.98218	
5284	52.830	-759.51971	62.49414	-625.66736	813.17828	66.69135	-619.14911	-676.05865	-33.73222	508.30145	740.92816	-36.39154	593.98773	23.37685	823.95807	-881.09351	
5285	52.840	-760.47296	61.59724	-625.98840	812.09222	65.85832	-619.29022	-676.95062	-33.22590	508.22290	740.00122	-35.75458	593.85944	22.40877	822.80237	-882.16724	
5286	52.850	-761.43512	61.00665	-626.18353	811.32507	65.08794	-619.32257	-677.88092	-32.44644	507.91907	739.08704	-35.08377	593.65576	21.36514	821.84894	-883.04596	
5287	52.860	-762.26349	59.83812	-626.41449	810.38397	64.03225	-619.74573	-679.01678	-32.02848	507.95285	738.08875	-34.45958	593.52136	20.15061	820.87701	-884.18774	
5288	52.870	-763.44629	59.25739	-626.72968	809.20142	63.47138	-620.11963	-680.13367	-31.44465	507.43887	736.90143	-33.73875	593.43567	19.31484	819.59894	-884.96216	
5289	52.880	-764.49286	58.31800	-627.13251	808.14764	62.40302	-620.24768	-681.16632	-30.70067	507.29263	736.25861	-32.67298	593.45642	18.15785	818.31604	-886.43298	
5290	52.890	-765.63989	57.53271	-627.21747	807.42853	61.69317	-620.49200	-682.21387	-30.15713	507.20035	735.18109	-31.93024	593.22278	17.30097	817.22925	-887.43005	
5291	52.900	-766.51910	56.56076	-627.68066	806.22089	60.84748	-620.74579	-683.23926	-29.62450	507.04486	733.96729	-31.01013	593.01862	16.03877	816.02820	-889.00244	
5292	52.910	-767.55469	55.61177	-627.92035	805.12396	59.66917	-621.20886	-684.45850	-28.67862	506.74118	733.14240	-30.43335	592.89001	14.97630	814.44458	-890.43402	
5293	52.920	-768.53113	54.71173	-628.21173	804.13202	58.88793	-621.55835	-685.23004	-28.10765	506.70615	731.88147	-29.71620	592.69672	14.11220	813.23364	-891.65155	
5294	52.930	-769.64270	53.76176	-628.40399	802.87207	57.95168	-621.78845	-686.37573	-27.44658	506.55096	730.86285	-28.76053	592.58069	13.25327	812.01776	-893.38007	
5295	52.940	-770.67072	52.84538	-628.90076	801.77350	57.01184	-622.09070	-687.60913	-26.65204	506.25098	729.99286	-27.88923	592.35400	11.77367	810.50543	-895.01367	
5296	52.950	-771.68671	51.68575	-629.09808	800.77197	55.79825	-622.39514	-688.63538	-26.06939	505.99484	728.69287	-26.98185	592.13922	10.83146	809.23999	-896.41626	
5297	52.960	-772.79077	50.72639	-629.30334	799.71027	55.01085	-622.75830	-689.75409	-25.24687	505.91110	727.80060	-26.20462	591.98438	9.95146	807.55878	-898.09564	
5298	52.970	-773.99567	49.63391	-629.84497	798.64819	53.67475	-622.96619	-690.86841	-24.61882	505.76212	726.53015	-25.41771	591.77594	8.68211	806.05573	-899.73602	
5299	52.980	-775.08862	48.55909	-630.18896	797.46625	52.62149	-623.31531	-692.00995	-23.65029	505.51794	725.54877	-24.41647	591.61041	7.69070	804.42847	-901.07062	
5300	52.990	-776.12225	47.25077	-630.41760	796.45166	51.68311	-623.74005	-692.97760	-23.07504	505.50821	724.55878	-23.42207	591.37646	6.40433	802.93732	-902.60980	
5301	53.000	-777.31049	46.18067	-630.86267	795.23895	50.68257	-624.13196	-694.21307	-22.20563	505.08719	723.22858	-22.52010	591.19031	5.37211	801.27240	-904.30664	
5302	53.010	-778.41595	45.31206	-631.16510	794.08496	50.10001	-624.35248	-695.22650	-21.37062	504.91943	722.31128	-21.60144	590.93494	4.26941	799.58276	-905.93671	
5303	53.020	-779.42706	44.10604	-631.47168	793.21820	48.13332	-624.65204	-696.21381	-20.40450	504.74850	720.90741	-20.66830	590.61084	3.20839	798.16547	-907.49347	
5304	53.030	-780.66455	42.39557	-631.86694	791.91956	46.47951	-625.18811	-697.47668	-19.75369	504.63202	719.89313	-19.70380	590.42078	1.85265	796.47308	-909.15668	
5305	53.040	-781.90228	41.47106	-632.43457	790.63690	45.79709	-625.46283	-698.66840	-18.81011	504.07468	718.72137	-18.67788	590.11359	0.89906	794.66406	-911.08142	
5306	53.050	-782.96149	40.39570	-632.53638	789.59845	44.71294	-625.78564	-699.69635	-18.11877	504.10950	717.59888	-17.61802	589.96686	-0.09051	792.80829	-912.71326	
5307	53.060	-783.98218	39.09024	-632.84009	788.40076	43.41914	-626.03156	-700.87018	-17.24676	503.53357	716.53351	-16.61228	589.80322	-1.14334	791.05713	-914.52667	
5308	53.070	-785.27155	38.11074	-633.28961	787.32819	41.86742	-626.61243	-702.07880	-16.14279	503.29861	715.28644	-15.44172	589.44348	-2.66237	789.53784	-916.31866	
5309	53.080	-786.33704	36.65152	-633.60760	786.46643	40.88683	-626.81207	-703.07593	-15.36581	503.06924	714.24988	-14.63602	589.24670	-3.58560	787.70374	-918.30072	
5310	53.090	-787.44159	35.23734	-634.02368	785.22620	39.65579	-627.16241	-704.20081	-14.36263	502.76459	712.94489	-13.47473	588.94086	-4.85424	785.99182	-920.17438	
